<svg width="183" height="18" viewBox="0 0 183 18" fill="none" xmlns="http://www.w3.org/2000/svg">
<path d="M13.6252 7.9822C14.3986 8.27553 14.9986 8.7222 15.4252 9.3222C15.8519 9.9222 16.0652 10.6289 16.0652 11.4422C16.0652 12.6155 15.6252 13.5822 14.7452 14.3422C13.8786 15.0889 12.7052 15.4622 11.2252 15.4622C9.8919 15.4622 8.82523 15.1622 8.02523 14.5622C7.22523 13.9622 6.6719 13.2089 6.36523 12.3022L7.56523 11.6222C7.73856 12.3289 8.1119 12.9289 8.68523 13.4222C9.2719 13.9022 10.1186 14.1422 11.2252 14.1422C12.3186 14.1422 13.1652 13.8955 13.7652 13.4022C14.3652 12.8955 14.6652 12.2422 14.6652 11.4422C14.6652 10.6422 14.3852 9.99553 13.8252 9.5022C13.2786 8.99553 12.5186 8.7422 11.5452 8.7422H9.94523V7.4222H11.0452C11.9919 7.4222 12.7452 7.1822 13.3052 6.7022C13.8652 6.2222 14.1452 5.6022 14.1452 4.8422C14.1452 4.09553 13.8719 3.48886 13.3252 3.0222C12.7919 2.5422 12.0586 2.3022 11.1252 2.3022C9.40523 2.3022 8.2719 3.03553 7.72523 4.5022L6.56523 3.8222C6.9119 2.96886 7.45856 2.2822 8.20523 1.7622C8.96523 1.2422 9.93856 0.982198 11.1252 0.982198C12.4452 0.982198 13.5119 1.35553 14.3252 2.1022C15.1386 2.83553 15.5452 3.75553 15.5452 4.8622C15.5452 6.2622 14.9052 7.3022 13.6252 7.9822ZM26.2738 5.2222H27.5938V15.2222H26.2738V13.2622C25.3538 14.7289 24.0072 15.4622 22.2338 15.4622C20.8072 15.4622 19.5872 14.9555 18.5738 13.9422C17.5738 12.9289 17.0738 11.6889 17.0738 10.2222C17.0738 8.75553 17.5738 7.51553 18.5738 6.5022C19.5872 5.48886 20.8072 4.9822 22.2338 4.9822C24.0072 4.9822 25.3538 5.71553 26.2738 7.1822V5.2222ZM19.5338 13.0422C20.2938 13.8022 21.2272 14.1822 22.3338 14.1822C23.4405 14.1822 24.3738 13.8022 25.1338 13.0422C25.8938 12.2689 26.2738 11.3289 26.2738 10.2222C26.2738 9.11553 25.8938 8.1822 25.1338 7.4222C24.3738 6.64886 23.4405 6.2622 22.3338 6.2622C21.2272 6.2622 20.2938 6.64886 19.5338 7.4222C18.7738 8.1822 18.3938 9.11553 18.3938 10.2222C18.3938 11.3289 18.7738 12.2689 19.5338 13.0422ZM37.8687 15.2222H36.1087L31.1087 10.4022V15.2222H29.7887V5.2222H31.1087V9.6422L35.8687 5.2222H37.6687L32.5087 10.0222L37.8687 15.2222ZM46.6754 5.2222H47.9954V15.2222H46.6754V13.2622C45.7554 14.7289 44.4087 15.4622 42.6354 15.4622C41.2087 15.4622 39.9887 14.9555 38.9754 13.9422C37.9754 12.9289 37.4754 11.6889 37.4754 10.2222C37.4754 8.75553 37.9754 7.51553 38.9754 6.5022C39.9887 5.48886 41.2087 4.9822 42.6354 4.9822C44.4087 4.9822 45.7554 5.71553 46.6754 7.1822V5.2222ZM39.9354 13.0422C40.6954 13.8022 41.6287 14.1822 42.7354 14.1822C43.8421 14.1822 44.7754 13.8022 45.5354 13.0422C46.2954 12.2689 46.6754 11.3289 46.6754 10.2222C46.6754 9.11553 46.2954 8.1822 45.5354 7.4222C44.7754 6.64886 43.8421 6.2622 42.7354 6.2622C41.6287 6.2622 40.6954 6.64886 39.9354 7.4222C39.1754 8.1822 38.7954 9.11553 38.7954 10.2222C38.7954 11.3289 39.1754 12.2689 39.9354 13.0422ZM55.3502 10.0822C56.5102 10.5222 57.0902 11.3222 57.0902 12.4822C57.0902 13.3089 56.7636 14.0155 56.1102 14.6022C55.4702 15.1755 54.5502 15.4622 53.3502 15.4622C51.3369 15.4622 50.0169 14.6622 49.3902 13.0622L50.5102 12.4022C50.9236 13.5889 51.8702 14.1822 53.3502 14.1822C54.1236 14.1822 54.7169 14.0155 55.1302 13.6822C55.5569 13.3489 55.7702 12.9222 55.7702 12.4022C55.7702 11.9355 55.5969 11.5555 55.2502 11.2622C54.9036 10.9689 54.4369 10.8222 53.8502 10.8222H52.3902V9.5422H53.4502C54.0236 9.5422 54.4702 9.4022 54.7902 9.1222C55.1236 8.82886 55.2902 8.42886 55.2902 7.9222C55.2902 7.4422 55.0969 7.04886 54.7102 6.7422C54.3236 6.4222 53.8036 6.2622 53.1502 6.2622C51.8969 6.2622 51.0636 6.7622 50.6502 7.7622L49.5502 7.1222C50.2169 5.69553 51.4169 4.9822 53.1502 4.9822C54.2036 4.9822 55.0436 5.2622 55.6702 5.8222C56.2969 6.36886 56.6102 7.0422 56.6102 7.8422C56.6102 8.86886 56.1902 9.61553 55.3502 10.0822ZM67.0965 5.2222H68.4165V15.2222H67.0965V13.2622C66.1765 14.7289 64.8298 15.4622 63.0565 15.4622C61.6298 15.4622 60.4098 14.9555 59.3965 13.9422C58.3965 12.9289 57.8965 11.6889 57.8965 10.2222C57.8965 8.75553 58.3965 7.51553 59.3965 6.5022C60.4098 5.48886 61.6298 4.9822 63.0565 4.9822C64.8298 4.9822 66.1765 5.71553 67.0965 7.1822V5.2222ZM60.3565 13.0422C61.1165 13.8022 62.0498 14.1822 63.1565 14.1822C64.2631 14.1822 65.1965 13.8022 65.9565 13.0422C66.7165 12.2689 67.0965 11.3289 67.0965 10.2222C67.0965 9.11553 66.7165 8.1822 65.9565 7.4222C65.1965 6.64886 64.2631 6.2622 63.1565 6.2622C62.0498 6.2622 61.1165 6.64886 60.3565 7.4222C59.5965 8.1822 59.2165 9.11553 59.2165 10.2222C59.2165 11.3289 59.5965 12.2689 60.3565 13.0422ZM77.8113 5.2222V6.5022H74.2713V15.2222H72.9513V6.5022H69.4113V5.2222H77.8113ZM82.8799 9.0222C83.8133 9.0222 84.5999 9.31553 85.2399 9.9022C85.8933 10.4755 86.2199 11.2155 86.2199 12.1222C86.2199 13.0289 85.8933 13.7755 85.2399 14.3622C84.5999 14.9355 83.8133 15.2222 82.8799 15.2222H78.8199V5.2222H80.1399V9.0222H82.8799ZM82.8799 13.9422C83.4399 13.9422 83.9133 13.7755 84.2999 13.4422C84.6999 13.1089 84.8999 12.6689 84.8999 12.1222C84.8999 11.5755 84.6999 11.1355 84.2999 10.8022C83.9133 10.4689 83.4399 10.3022 82.8799 10.3022H80.1399V13.9422H82.8799ZM97.1744 10.0822C98.3344 10.5222 98.9144 11.3222 98.9144 12.4822C98.9144 13.3089 98.5878 14.0155 97.9344 14.6022C97.2944 15.1755 96.3744 15.4622 95.1744 15.4622C93.1611 15.4622 91.8411 14.6622 91.2144 13.0622L92.3344 12.4022C92.7478 13.5889 93.6944 14.1822 95.1744 14.1822C95.9478 14.1822 96.5411 14.0155 96.9544 13.6822C97.3811 13.3489 97.5944 12.9222 97.5944 12.4022C97.5944 11.9355 97.4211 11.5555 97.0744 11.2622C96.7278 10.9689 96.2611 10.8222 95.6744 10.8222H94.2144V9.5422H95.2744C95.8478 9.5422 96.2944 9.4022 96.6144 9.1222C96.9478 8.82886 97.1144 8.42886 97.1144 7.9222C97.1144 7.4422 96.9211 7.04886 96.5344 6.7422C96.1478 6.4222 95.6278 6.2622 94.9744 6.2622C93.7211 6.2622 92.8878 6.7622 92.4744 7.7622L91.3744 7.1222C92.0411 5.69553 93.2411 4.9822 94.9744 4.9822C96.0278 4.9822 96.8678 5.2622 97.4944 5.8222C98.1211 6.36886 98.4344 7.0422 98.4344 7.8422C98.4344 8.86886 98.0144 9.61553 97.1744 10.0822ZM106.681 10.0822C107.774 10.4822 108.321 11.2622 108.321 12.4222C108.321 13.2355 108.047 13.9089 107.501 14.4422C106.967 14.9622 106.194 15.2222 105.181 15.2222H100.321V5.2222H104.781C105.754 5.2222 106.507 5.47553 107.041 5.9822C107.574 6.47553 107.841 7.11553 107.841 7.9022C107.841 8.9022 107.454 9.62887 106.681 10.0822ZM104.781 6.5022H101.641V9.5422H104.781C105.941 9.5422 106.521 9.0222 106.521 7.9822C106.521 7.51553 106.367 7.15553 106.061 6.9022C105.767 6.63553 105.341 6.5022 104.781 6.5022ZM105.181 13.9422C105.767 13.9422 106.214 13.8022 106.521 13.5222C106.841 13.2422 107.001 12.8489 107.001 12.3422C107.001 11.8755 106.841 11.5089 106.521 11.2422C106.214 10.9622 105.767 10.8222 105.181 10.8222H101.641V13.9422H105.181ZM118.101 13.9622C117.087 14.9622 115.847 15.4622 114.381 15.4622C112.914 15.4622 111.667 14.9622 110.641 13.9622C109.627 12.9489 109.121 11.7022 109.121 10.2222C109.121 8.7422 109.627 7.5022 110.641 6.5022C111.667 5.48886 112.914 4.9822 114.381 4.9822C115.847 4.9822 117.087 5.48886 118.101 6.5022C119.127 7.5022 119.641 8.7422 119.641 10.2222C119.641 11.7022 119.127 12.9489 118.101 13.9622ZM111.581 13.0422C112.341 13.8022 113.274 14.1822 114.381 14.1822C115.487 14.1822 116.421 13.8022 117.181 13.0422C117.941 12.2689 118.321 11.3289 118.321 10.2222C118.321 9.11553 117.941 8.1822 117.181 7.4222C116.421 6.64886 115.487 6.2622 114.381 6.2622C113.274 6.2622 112.341 6.64886 111.581 7.4222C110.821 8.1822 110.441 9.11553 110.441 10.2222C110.441 11.3289 110.821 12.2689 111.581 13.0422ZM128.33 5.2222H129.65V15.2222H128.33V10.8622H122.57V15.2222H121.25V5.2222H122.57V9.5822H128.33V5.2222ZM140.221 13.9622C139.208 14.9622 137.968 15.4622 136.501 15.4622C135.034 15.4622 133.788 14.9622 132.761 13.9622C131.748 12.9489 131.241 11.7022 131.241 10.2222C131.241 8.7422 131.748 7.5022 132.761 6.5022C133.788 5.48886 135.034 4.9822 136.501 4.9822C137.968 4.9822 139.208 5.48886 140.221 6.5022C141.248 7.5022 141.761 8.7422 141.761 10.2222C141.761 11.7022 141.248 12.9489 140.221 13.9622ZM133.701 13.0422C134.461 13.8022 135.394 14.1822 136.501 14.1822C137.608 14.1822 138.541 13.8022 139.301 13.0422C140.061 12.2689 140.441 11.3289 140.441 10.2222C140.441 9.11553 140.061 8.1822 139.301 7.4222C138.541 6.64886 137.608 6.2622 136.501 6.2622C135.394 6.2622 134.461 6.64886 133.701 7.4222C132.941 8.1822 132.561 9.11553 132.561 10.2222C132.561 11.3289 132.941 12.2689 133.701 13.0422ZM151.45 15.2222H149.69L144.69 10.4022V15.2222H143.37V5.2222H144.69V9.6422L149.45 5.2222H151.25L146.09 10.0222L151.45 15.2222Z" fill="white"/>
<path d="M168.002 15.5151C167.611 15.9056 167.611 16.5388 168.002 16.9293C168.392 17.3198 169.026 17.3198 169.416 16.9293L168.002 15.5151ZM182.709 3.2222C182.709 2.66991 182.261 2.2222 181.709 2.2222L172.709 2.2222C172.157 2.2222 171.709 2.66991 171.709 3.2222C171.709 3.77448 172.157 4.2222 172.709 4.2222L180.709 4.2222L180.709 12.2222C180.709 12.7745 181.157 13.2222 181.709 13.2222C182.261 13.2222 182.709 12.7745 182.709 12.2222L182.709 3.2222ZM169.416 16.9293L182.416 3.9293L181.002 2.51509L168.002 15.5151L169.416 16.9293Z" fill="white"/>
</svg>
