<svg width="183" height="20" viewBox="0 0 183 20" fill="none" xmlns="http://www.w3.org/2000/svg">
<path d="M43.8398 13.3622C42.4398 14.7622 40.7264 15.4622 38.6998 15.4622C36.6731 15.4622 34.9598 14.7622 33.5598 13.3622C32.1598 11.9488 31.4598 10.2355 31.4598 8.22217C31.4598 6.20883 32.1598 4.50217 33.5598 3.10217C34.9598 1.68883 36.6731 0.982168 38.6998 0.982168C40.7264 0.982168 42.4398 1.68883 43.8398 3.10217C45.2398 4.50217 45.9398 6.20883 45.9398 8.22217C45.9398 10.2355 45.2398 11.9488 43.8398 13.3622ZM34.5398 12.4022C35.6598 13.5355 37.0464 14.1022 38.6998 14.1022C40.3531 14.1022 41.7398 13.5355 42.8598 12.4022C43.9798 11.2555 44.5398 9.86217 44.5398 8.22217C44.5398 6.58217 43.9798 5.1955 42.8598 4.06217C41.7398 2.9155 40.3531 2.34217 38.6998 2.34217C37.0464 2.34217 35.6598 2.9155 34.5398 4.06217C33.4198 5.1955 32.8598 6.58217 32.8598 8.22217C32.8598 9.86217 33.4198 11.2555 34.5398 12.4022ZM54.734 5.22217V6.50217H51.194V15.2222H49.874V6.50217H46.334V5.22217H54.734ZM64.1426 5.22217V15.2222H62.8226V6.50217H57.0626V15.2222H55.7426V5.22217H64.1426ZM71.694 4.98217C73.1207 4.98217 74.334 5.48883 75.334 6.50217C76.3473 7.5155 76.854 8.7555 76.854 10.2222C76.854 11.6888 76.3473 12.9288 75.334 13.9422C74.334 14.9555 73.1207 15.4622 71.694 15.4622C69.9207 15.4622 68.574 14.7288 67.654 13.2622V19.2222H66.334V5.22217H67.654V7.18217C68.574 5.7155 69.9207 4.98217 71.694 4.98217ZM68.794 13.0422C69.554 13.8022 70.4873 14.1822 71.594 14.1822C72.7007 14.1822 73.634 13.8022 74.394 13.0422C75.154 12.2688 75.534 11.3288 75.534 10.2222C75.534 9.1155 75.154 8.18217 74.394 7.42217C73.634 6.64883 72.7007 6.26217 71.594 6.26217C70.4873 6.26217 69.554 6.64883 68.794 7.42217C68.034 8.18217 67.654 9.1155 67.654 10.2222C67.654 11.3288 68.034 12.2688 68.794 13.0422ZM87.0488 5.22217H88.3688V15.2222H87.0488V13.2622C86.1288 14.7288 84.7822 15.4622 83.0088 15.4622C81.5822 15.4622 80.3622 14.9555 79.3488 13.9422C78.3488 12.9288 77.8488 11.6888 77.8488 10.2222C77.8488 8.7555 78.3488 7.5155 79.3488 6.50217C80.3622 5.48883 81.5822 4.98217 83.0088 4.98217C84.7822 4.98217 86.1288 5.7155 87.0488 7.18217V5.22217ZM80.3088 13.0422C81.0688 13.8022 82.0022 14.1822 83.1088 14.1822C84.2155 14.1822 85.1488 13.8022 85.9088 13.0422C86.6688 12.2688 87.0488 11.3288 87.0488 10.2222C87.0488 9.1155 86.6688 8.18217 85.9088 7.42217C85.1488 6.64883 84.2155 6.26217 83.1088 6.26217C82.0022 6.26217 81.0688 6.64883 80.3088 7.42217C79.5488 8.18217 79.1688 9.1155 79.1688 10.2222C79.1688 11.3288 79.5488 12.2688 80.3088 13.0422ZM96.9237 10.0822C98.017 10.4822 98.5637 11.2622 98.5637 12.4222C98.5637 13.2355 98.2903 13.9088 97.7437 14.4422C97.2103 14.9622 96.437 15.2222 95.4237 15.2222H90.5637V5.22217H95.0237C95.997 5.22217 96.7503 5.4755 97.2837 5.98217C97.817 6.4755 98.0837 7.1155 98.0837 7.90217C98.0837 8.90217 97.697 9.62883 96.9237 10.0822ZM95.0237 6.50217H91.8837V9.54217H95.0237C96.1837 9.54217 96.7637 9.02217 96.7637 7.98217C96.7637 7.5155 96.6103 7.1555 96.3037 6.90217C96.0103 6.6355 95.5837 6.50217 95.0237 6.50217ZM95.4237 13.9422C96.0103 13.9422 96.457 13.8022 96.7637 13.5222C97.0837 13.2422 97.2437 12.8488 97.2437 12.3422C97.2437 11.8755 97.0837 11.5088 96.7637 11.2422C96.457 10.9622 96.0103 10.8222 95.4237 10.8222H91.8837V13.9422H95.4237ZM107.244 5.22217H108.364V15.2222H107.044V7.52217L101.084 15.2222H99.9637V5.22217H101.284V12.9222L107.244 5.22217ZM117.755 5.22217V6.50217H114.215V15.2222H112.895V6.50217H109.355V5.22217H117.755ZM122.824 9.02217C123.757 9.02217 124.544 9.3155 125.184 9.90217C125.837 10.4755 126.164 11.2155 126.164 12.1222C126.164 13.0288 125.837 13.7755 125.184 14.3622C124.544 14.9355 123.757 15.2222 122.824 15.2222H118.764V5.22217H120.084V9.02217H122.824ZM122.824 13.9422C123.384 13.9422 123.857 13.7755 124.244 13.4422C124.644 13.1088 124.844 12.6688 124.844 12.1222C124.844 11.5755 124.644 11.1355 124.244 10.8022C123.857 10.4688 123.384 10.3022 122.824 10.3022H120.084V13.9422H122.824Z" fill="white"/>
<path d="M168.002 15.5151C167.611 15.9056 167.611 16.5388 168.002 16.9293C168.392 17.3198 169.026 17.3198 169.416 16.9293L168.002 15.5151ZM182.709 3.22217C182.709 2.66988 182.261 2.22217 181.709 2.22217L172.709 2.22217C172.157 2.22217 171.709 2.66988 171.709 3.22217C171.709 3.77445 172.157 4.22217 172.709 4.22217L180.709 4.22217L180.709 12.2222C180.709 12.7745 181.157 13.2222 181.709 13.2222C182.261 13.2222 182.709 12.7745 182.709 12.2222L182.709 3.22217ZM169.416 16.9293L182.416 3.92927L181.002 2.51506L168.002 15.5151L169.416 16.9293Z" fill="white"/>
</svg>
